# xmcd CD database file
#
# Track frame offsets:
#	150
#	23071
#	44151
#	63639
#	86384
#	105069
#	124518
#	145357
#	163916
#	186238
#
# Disc length: 2859 seconds
#
# Revision: 0
# Processed by: cddbd v1.5.1PL0 Copyright (c) Steve Scherf et al.
# Submitted via: CDex 1.50beta8
#
DISCID=850b290a
DTITLE=徳永愛 - Scarlet
DYEAR=2004
DGENRE=JPop
TTITLE0=オレンジプラネット
TTITLE1=Scarlet
TTITLE2=Brilliant Tomorrow
TTITLE3=Crystal Tears
TTITLE4=JELLYFISH
TTITLE5=POWER OF WORDS
TTITLE6=After the rain
TTITLE7=真夏のエントランス
TTITLE8=WHITE REFLECTION
TTITLE9=Feel
EXTD=YEAR: 2004
EXTT0=
EXTT1=
EXTT2=
EXTT3=
EXTT4=
EXTT5=
EXTT6=
EXTT7=
EXTT8=
EXTT9=
PLAYORDER=
